<svg xmlns="http://www.w3.org/2000/svg" xmlns:xlink="http://www.w3.org/1999/xlink" viewBox="0 0 96 96"><defs><style>.cls-1{fill:none;}.cls-2{opacity:0;}.cls-3{clip-path:url(#clip-path);}.cls-4{fill:#fff;}.cls-5{fill:#ffc20e;}.cls-6{fill:#ffd400;}.cls-7,.cls-8{fill:#00416b;}.cls-8,.cls-9{fill-rule:evenodd;}.cls-9{fill:#cd992b;}.cls-10{fill:#0083ca;}</style><clipPath id="clip-path"><rect class="cls-1" width="96" height="96"/></clipPath></defs><g id="icones"><g class="cls-2"><g class="cls-3"><g class="cls-2"><g class="cls-3"><rect class="cls-4" width="96" height="96"/></g></g></g></g><path class="cls-5" d="M88,52.69a5.32,5.32,0,0,0-.06-.56c0-.06,0-.11-.05-.17s-.07-.23-.11-.35a2.72,2.72,0,0,0-.11-.25s0,0,0-.06L80,36.51a3.42,3.42,0,0,0-3-1.88H58.64V68.24A2.77,2.77,0,0,1,56,71H82.91a3.42,3.42,0,0,0,3-1.88l2-16s0,0,0,0v-.15a1.09,1.09,0,0,0,0-.18s0,0,0-.05"/><path class="cls-6" d="M81.11,34.21l6.47,12.95A3.92,3.92,0,0,1,88,48.94V67a4,4,0,0,1-4,4H48V32H77.53a4,4,0,0,1,3.58,2.21"/><path class="cls-6" d="M59,71H12a4,4,0,0,1-4-4V20a4,4,0,0,1,4-4H59a4,4,0,0,1,4,4V67a4,4,0,0,1-4,4"/><path class="cls-7" d="M85,63h4a2,2,0,0,1,0,4H85a2,2,0,0,1,0-4"/><path class="cls-5" d="M63,20V67a4,4,0,0,1-4,4H12a4,4,0,0,1-2.28-.72L62.28,17.72A4,4,0,0,1,63,20"/><path class="cls-8" d="M32,72a8,8,0,1,0-8,8,8,8,0,0,0,8-8"/><path class="cls-9" d="M28,72a4,4,0,1,0-4,4,4,4,0,0,0,4-4"/><path class="cls-7" d="M7,63h4a2,2,0,0,1,0,4H7a2,2,0,0,1,0-4"/><path class="cls-10" d="M69,36h7.76a2,2,0,0,1,1.79,1.11l4,8A2,2,0,0,1,80.76,48H69a2,2,0,0,1-2-2V38a2,2,0,0,1,2-2"/><path class="cls-8" d="M80,72a8,8,0,1,0-8,8,8,8,0,0,0,8-8"/><path class="cls-9" d="M76,72a4,4,0,1,0-4,4,4,4,0,0,0,4-4"/></g></svg>