<?xml version="1.0" encoding="iso-8859-1"?>
<!-- Generator: Adobe Illustrator 19.0.0, SVG Export Plug-In . SVG Version: 6.00 Build 0)  -->
<svg xmlns="http://www.w3.org/2000/svg" xmlns:xlink="http://www.w3.org/1999/xlink" version="1.1" id="Layer_1" x="0px" y="0px" viewBox="0 0 322.957 322.957" style="enable-background:new 0 0 322.957 322.957;" xml:space="preserve" width="512" height="512">
<g>
	<path style="fill:#D59D4D;" d="M307.957,275.192H15c-8.284,0-15-6.716-15-15V62.765c0-8.284,6.716-15,15-15h292.957   c8.284,0,15,6.716,15,15v197.428C322.957,268.477,316.241,275.192,307.957,275.192z"/>
	<path style="fill:#AD813E;" d="M161.781,275.192H15c-8.284,0-15-6.716-15-15V62.765c0-8.284,6.716-15,15-15h146.781V275.192z"/>
	<g>
		<g>
			<g>
				<path style="fill:#FDCC40;" d="M309.342,47.835c-0.457-0.042-0.917-0.07-1.385-0.07H15c-0.468,0-0.928,0.028-1.385,0.07      l132.33,89.179c9.389,6.327,21.678,6.327,31.067,0L309.342,47.835z"/>
			</g>
		</g>
	</g>
	<g>
		<g>
			<g>
				<path style="fill:#DEB43A;" d="M161.781,47.765H15c-0.468,0-0.928,0.028-1.385,0.07l132.33,89.179      c4.695,3.164,10.114,4.746,15.533,4.746c0.101,0,0.202-0.001,0.303-0.002L161.781,47.765z"/>
			</g>
		</g>
	</g>
</g>















</svg>
