<?xml version="1.0" encoding="iso-8859-1"?>
<!-- Generator: Adobe Illustrator 19.0.0, SVG Export Plug-In . SVG Version: 6.00 Build 0)  -->
<svg xmlns="http://www.w3.org/2000/svg" xmlns:xlink="http://www.w3.org/1999/xlink" version="1.1" id="Layer_1" x="0px" y="0px" viewBox="0 0 329.94 329.94" style="enable-background:new 0 0 329.94 329.94;" xml:space="preserve" width="512" height="512">
<g>
	<g>
		<path style="fill:#D59D4D;" d="M273.754,0H56.186c-8.284,0-15,6.716-15,15v299.94c0,8.284,6.716,15,15,15h217.568    c8.284,0,15-6.716,15-15V15C288.754,6.716,282.039,0,273.754,0z"/>
	</g>
	<g>
		<path style="fill:#AD813E;" d="M164.97,0H56.186c-8.284,0-15,6.716-15,15v299.94c0,8.284,6.716,15,15,15H164.97V0z"/>
	</g>
	<g>
		<g>
			<path style="fill:#FDCC40;" d="M71.186,99.98h187.568V30H71.186V99.98z"/>
			<path style="fill:#DEB43A;" d="M71.186,99.98h93.784V30H71.186V99.98z"/>
			<path style="fill:#FDCC40;" d="M71.186,197.058h187.568v-69.98H71.186V197.058z"/>
			<path style="fill:#DEB43A;" d="M71.186,197.058h93.784v-69.98H71.186V197.058z"/>
			<path style="fill:#FDCC40;" d="M71.186,294.136h187.568v-69.98H71.186V294.136z"/>
			<path style="fill:#DEB43A;" d="M71.186,294.136h93.784v-69.98H71.186V294.136z"/>
		</g>
		<path style="fill:#A99B96;" d="M147.471,79.99h34.998c8.284,0,15-6.716,15-15s-6.716-15-15-15h-34.998c-8.284,0-15,6.716-15,15    S139.187,79.99,147.471,79.99z"/>
		<path style="fill:#938783;" d="M147.471,79.99h17.499v-30h-17.499c-8.284,0-15,6.716-15,15S139.187,79.99,147.471,79.99z"/>
		<path style="fill:#A99B96;" d="M147.471,177.068h34.998c8.284,0,15-6.716,15-15s-6.716-15-15-15h-34.998c-8.284,0-15,6.716-15,15    S139.187,177.068,147.471,177.068z"/>
		<path style="fill:#938783;" d="M147.471,177.068h17.499v-30h-17.499c-8.284,0-15,6.716-15,15S139.187,177.068,147.471,177.068z"/>
		<path style="fill:#A99B96;" d="M147.471,274.145h34.998c8.284,0,15-6.716,15-15c0-8.284-6.716-15-15-15h-34.998    c-8.284,0-15,6.716-15,15C132.471,267.43,139.187,274.145,147.471,274.145z"/>
		<path style="fill:#938783;" d="M147.471,274.145h17.499v-30h-17.499c-8.284,0-15,6.716-15,15    C132.471,267.43,139.187,274.145,147.471,274.145z"/>
	</g>
</g>















</svg>
